<mxfile host="Electron" modified="2024-02-29T14:21:41.562Z" agent="Mozilla/5.0 (Windows NT 10.0; Win64; x64) AppleWebKit/537.36 (KHTML, like Gecko) draw.io/23.1.5 Chrome/120.0.6099.109 Electron/28.1.0 Safari/537.36" etag="HH85E4yPVF9BYt-RBNgo" version="23.1.5" type="device">
  <diagram name="Page-1" id="LUI0WF8FXc-t-lTjfXF_">
    <mxGraphModel dx="1500" dy="1981" grid="0" gridSize="10" guides="1" tooltips="1" connect="1" arrows="1" fold="1" page="0" pageScale="1" pageWidth="850" pageHeight="1100" math="0" shadow="0">
      <root>
        <mxCell id="0" />
        <mxCell id="1" parent="0" />
        <mxCell id="UHL0IuSQyWZX0dqvrrS0-3" style="edgeStyle=orthogonalEdgeStyle;rounded=0;orthogonalLoop=1;jettySize=auto;html=1;exitX=0.5;exitY=1;exitDx=0;exitDy=0;" edge="1" parent="1" source="UHL0IuSQyWZX0dqvrrS0-1" target="UHL0IuSQyWZX0dqvrrS0-2">
          <mxGeometry relative="1" as="geometry" />
        </mxCell>
        <mxCell id="UHL0IuSQyWZX0dqvrrS0-1" value="login.php" style="rounded=0;whiteSpace=wrap;html=1;" vertex="1" parent="1">
          <mxGeometry x="196" y="-564" width="120" height="60" as="geometry" />
        </mxCell>
        <mxCell id="UHL0IuSQyWZX0dqvrrS0-9" style="edgeStyle=orthogonalEdgeStyle;rounded=0;orthogonalLoop=1;jettySize=auto;html=1;exitX=0.5;exitY=1;exitDx=0;exitDy=0;" edge="1" parent="1" source="UHL0IuSQyWZX0dqvrrS0-2" target="UHL0IuSQyWZX0dqvrrS0-8">
          <mxGeometry relative="1" as="geometry" />
        </mxCell>
        <mxCell id="UHL0IuSQyWZX0dqvrrS0-2" value="dashboard.php" style="rounded=0;whiteSpace=wrap;html=1;" vertex="1" parent="1">
          <mxGeometry x="196" y="-462" width="120" height="60" as="geometry" />
        </mxCell>
        <mxCell id="UHL0IuSQyWZX0dqvrrS0-5" style="edgeStyle=orthogonalEdgeStyle;rounded=0;orthogonalLoop=1;jettySize=auto;html=1;exitX=0.5;exitY=1;exitDx=0;exitDy=0;entryX=0.5;entryY=0;entryDx=0;entryDy=0;" edge="1" parent="1" source="UHL0IuSQyWZX0dqvrrS0-4" target="UHL0IuSQyWZX0dqvrrS0-1">
          <mxGeometry relative="1" as="geometry" />
        </mxCell>
        <mxCell id="UHL0IuSQyWZX0dqvrrS0-4" value="index.php" style="whiteSpace=wrap;html=1;" vertex="1" parent="1">
          <mxGeometry x="196" y="-669" width="120" height="60" as="geometry" />
        </mxCell>
        <mxCell id="UHL0IuSQyWZX0dqvrrS0-6" value="customer_create.php" style="rounded=0;whiteSpace=wrap;html=1;" vertex="1" parent="1">
          <mxGeometry x="549" y="-164" width="120" height="60" as="geometry" />
        </mxCell>
        <mxCell id="UHL0IuSQyWZX0dqvrrS0-7" value="customer_delete.php" style="rounded=0;whiteSpace=wrap;html=1;" vertex="1" parent="1">
          <mxGeometry x="-4" y="-164" width="120" height="60" as="geometry" />
        </mxCell>
        <mxCell id="UHL0IuSQyWZX0dqvrrS0-10" style="edgeStyle=orthogonalEdgeStyle;rounded=0;orthogonalLoop=1;jettySize=auto;html=1;exitX=1;exitY=0.5;exitDx=0;exitDy=0;" edge="1" parent="1" source="UHL0IuSQyWZX0dqvrrS0-8" target="UHL0IuSQyWZX0dqvrrS0-6">
          <mxGeometry relative="1" as="geometry" />
        </mxCell>
        <mxCell id="UHL0IuSQyWZX0dqvrrS0-12" style="edgeStyle=orthogonalEdgeStyle;rounded=0;orthogonalLoop=1;jettySize=auto;html=1;exitX=0;exitY=0.5;exitDx=0;exitDy=0;" edge="1" parent="1" source="UHL0IuSQyWZX0dqvrrS0-8" target="UHL0IuSQyWZX0dqvrrS0-7">
          <mxGeometry relative="1" as="geometry" />
        </mxCell>
        <mxCell id="UHL0IuSQyWZX0dqvrrS0-18" style="edgeStyle=orthogonalEdgeStyle;rounded=0;orthogonalLoop=1;jettySize=auto;html=1;exitX=0.5;exitY=1;exitDx=0;exitDy=0;entryX=0.5;entryY=0;entryDx=0;entryDy=0;" edge="1" parent="1" source="UHL0IuSQyWZX0dqvrrS0-8" target="UHL0IuSQyWZX0dqvrrS0-17">
          <mxGeometry relative="1" as="geometry" />
        </mxCell>
        <mxCell id="UHL0IuSQyWZX0dqvrrS0-21" style="edgeStyle=orthogonalEdgeStyle;rounded=0;orthogonalLoop=1;jettySize=auto;html=1;exitX=0;exitY=0.25;exitDx=0;exitDy=0;entryX=0.5;entryY=0;entryDx=0;entryDy=0;" edge="1" parent="1" source="UHL0IuSQyWZX0dqvrrS0-8" target="UHL0IuSQyWZX0dqvrrS0-20">
          <mxGeometry relative="1" as="geometry" />
        </mxCell>
        <mxCell id="UHL0IuSQyWZX0dqvrrS0-22" style="edgeStyle=orthogonalEdgeStyle;rounded=0;orthogonalLoop=1;jettySize=auto;html=1;exitX=1;exitY=0.25;exitDx=0;exitDy=0;entryX=0.5;entryY=0;entryDx=0;entryDy=0;" edge="1" parent="1" source="UHL0IuSQyWZX0dqvrrS0-8" target="UHL0IuSQyWZX0dqvrrS0-15">
          <mxGeometry relative="1" as="geometry" />
        </mxCell>
        <mxCell id="UHL0IuSQyWZX0dqvrrS0-25" style="edgeStyle=orthogonalEdgeStyle;rounded=0;orthogonalLoop=1;jettySize=auto;html=1;exitX=1;exitY=0.75;exitDx=0;exitDy=0;" edge="1" parent="1" source="UHL0IuSQyWZX0dqvrrS0-8" target="UHL0IuSQyWZX0dqvrrS0-24">
          <mxGeometry relative="1" as="geometry" />
        </mxCell>
        <mxCell id="UHL0IuSQyWZX0dqvrrS0-8" value="customers.php" style="rounded=0;whiteSpace=wrap;html=1;" vertex="1" parent="1">
          <mxGeometry x="196" y="-280" width="120" height="60" as="geometry" />
        </mxCell>
        <mxCell id="UHL0IuSQyWZX0dqvrrS0-15" value="customer_edit.php" style="rounded=0;whiteSpace=wrap;html=1;" vertex="1" parent="1">
          <mxGeometry x="696" y="-164" width="120" height="60" as="geometry" />
        </mxCell>
        <mxCell id="UHL0IuSQyWZX0dqvrrS0-27" style="edgeStyle=orthogonalEdgeStyle;rounded=0;orthogonalLoop=1;jettySize=auto;html=1;exitX=0.5;exitY=1;exitDx=0;exitDy=0;" edge="1" parent="1" source="UHL0IuSQyWZX0dqvrrS0-17" target="UHL0IuSQyWZX0dqvrrS0-26">
          <mxGeometry relative="1" as="geometry" />
        </mxCell>
        <mxCell id="UHL0IuSQyWZX0dqvrrS0-17" value="customer_transfer_history.php" style="rounded=0;whiteSpace=wrap;html=1;" vertex="1" parent="1">
          <mxGeometry x="166" y="-164" width="180" height="60" as="geometry" />
        </mxCell>
        <mxCell id="UHL0IuSQyWZX0dqvrrS0-20" value="customer_deposit.php" style="rounded=0;whiteSpace=wrap;html=1;" vertex="1" parent="1">
          <mxGeometry x="-174" y="-164" width="120" height="60" as="geometry" />
        </mxCell>
        <mxCell id="UHL0IuSQyWZX0dqvrrS0-24" value="customer_profile.php" style="rounded=0;whiteSpace=wrap;html=1;" vertex="1" parent="1">
          <mxGeometry x="381" y="-164" width="120" height="60" as="geometry" />
        </mxCell>
        <mxCell id="UHL0IuSQyWZX0dqvrrS0-26" value="Database" style="shape=cylinder3;whiteSpace=wrap;html=1;boundedLbl=1;backgroundOutline=1;size=15;" vertex="1" parent="1">
          <mxGeometry x="226" y="206" width="60" height="80" as="geometry" />
        </mxCell>
        <mxCell id="UHL0IuSQyWZX0dqvrrS0-28" style="edgeStyle=orthogonalEdgeStyle;rounded=0;orthogonalLoop=1;jettySize=auto;html=1;exitX=0.5;exitY=1;exitDx=0;exitDy=0;entryX=0.855;entryY=0;entryDx=0;entryDy=4.35;entryPerimeter=0;" edge="1" parent="1" source="UHL0IuSQyWZX0dqvrrS0-24" target="UHL0IuSQyWZX0dqvrrS0-26">
          <mxGeometry relative="1" as="geometry">
            <Array as="points">
              <mxPoint x="441" y="100" />
              <mxPoint x="277" y="100" />
            </Array>
          </mxGeometry>
        </mxCell>
        <mxCell id="UHL0IuSQyWZX0dqvrrS0-29" style="edgeStyle=orthogonalEdgeStyle;rounded=0;orthogonalLoop=1;jettySize=auto;html=1;exitX=0.5;exitY=1;exitDx=0;exitDy=0;entryX=0.145;entryY=0;entryDx=0;entryDy=4.35;entryPerimeter=0;" edge="1" parent="1" source="UHL0IuSQyWZX0dqvrrS0-7" target="UHL0IuSQyWZX0dqvrrS0-26">
          <mxGeometry relative="1" as="geometry">
            <Array as="points">
              <mxPoint x="56" y="100" />
              <mxPoint x="235" y="100" />
            </Array>
          </mxGeometry>
        </mxCell>
        <mxCell id="UHL0IuSQyWZX0dqvrrS0-30" style="edgeStyle=orthogonalEdgeStyle;rounded=0;orthogonalLoop=1;jettySize=auto;html=1;exitX=0.5;exitY=1;exitDx=0;exitDy=0;entryX=1;entryY=0;entryDx=0;entryDy=15;entryPerimeter=0;" edge="1" parent="1" source="UHL0IuSQyWZX0dqvrrS0-6" target="UHL0IuSQyWZX0dqvrrS0-26">
          <mxGeometry relative="1" as="geometry" />
        </mxCell>
        <mxCell id="UHL0IuSQyWZX0dqvrrS0-31" style="edgeStyle=orthogonalEdgeStyle;rounded=0;orthogonalLoop=1;jettySize=auto;html=1;exitX=0.5;exitY=1;exitDx=0;exitDy=0;entryX=1;entryY=0.5;entryDx=0;entryDy=0;entryPerimeter=0;" edge="1" parent="1" source="UHL0IuSQyWZX0dqvrrS0-15" target="UHL0IuSQyWZX0dqvrrS0-26">
          <mxGeometry relative="1" as="geometry" />
        </mxCell>
        <mxCell id="UHL0IuSQyWZX0dqvrrS0-32" style="edgeStyle=orthogonalEdgeStyle;rounded=0;orthogonalLoop=1;jettySize=auto;html=1;exitX=0.5;exitY=1;exitDx=0;exitDy=0;entryX=0;entryY=0;entryDx=0;entryDy=15;entryPerimeter=0;" edge="1" parent="1" source="UHL0IuSQyWZX0dqvrrS0-20" target="UHL0IuSQyWZX0dqvrrS0-26">
          <mxGeometry relative="1" as="geometry" />
        </mxCell>
      </root>
    </mxGraphModel>
  </diagram>
</mxfile>
